<?xml version="1.0" encoding="UTF-8"?>
<svg width="512px" height="507px" viewBox="0 0 512 507" version="1.1" xmlns="http://www.w3.org/2000/svg" xmlns:xlink="http://www.w3.org/1999/xlink">
    <!-- Generator: Sketch 60 (88103) - https://sketch.com -->
    <title>burger</title>
    <desc>Created with Sketch.</desc>
    <g id="Page-1" stroke="none" stroke-width="1" fill="none" fill-rule="evenodd">
        <g id="burger" fill="#F6A707" fill-rule="nonzero">
            <path d="M294.671875,63.957031 C327.511719,69.042969 357.972656,80.597656 382.761719,97.367188 C406.734375,113.585938 424.359375,133.90625 433.734375,156.136719 C435.34375,159.960938 439.050781,162.257812 442.953125,162.257812 C444.25,162.257812 445.566406,162.003906 446.835938,161.46875 C451.925781,159.320312 454.308594,153.457031 452.164062,148.367188 C441.28125,122.558594 421.15625,99.195312 393.96875,80.800781 C366.75,62.386719 333.472656,49.726562 297.730469,44.191406 C292.28125,43.347656 287.164062,47.085938 286.320312,52.546875 C285.472656,58 289.210938,63.109375 294.671875,63.957031 L294.671875,63.957031 Z" id="Path"></path>
            <path d="M100.351562,138.972656 C101.933594,142.769531 105.960938,145.328125 110.070312,145.132812 C114.128906,144.9375 117.855469,142.066406 119.089844,138.195312 C120.339844,134.277344 118.941406,129.703125 115.660156,127.207031 C112.265625,124.628906 107.277344,124.535156 103.792969,126.996094 C100.085938,129.613281 98.636719,134.789062 100.351562,138.972656 Z" id="Path"></path>
            <path d="M148.53125,101.734375 C150.128906,105.574219 154.226562,108.160156 158.386719,107.894531 C162.398438,107.632812 166.046875,104.773438 167.277344,100.949219 C168.53125,97.058594 167.125,92.527344 163.898438,90.019531 C160.488281,87.375 155.414062,87.265625 151.914062,89.800781 C148.273438,92.4375 146.796875,97.574219 148.53125,101.734375 Z" id="Path"></path>
            <path d="M200.289062,138.972656 C201.871094,142.769531 205.902344,145.328125 210.011719,145.132812 C214.070312,144.9375 217.804688,142.066406 219.039062,138.195312 C220.289062,134.273438 218.882812,129.699219 215.597656,127.207031 C212.203125,124.628906 207.21875,124.535156 203.730469,126.996094 C200.027344,129.613281 198.574219,134.789062 200.289062,138.972656 Z" id="Path"></path>
            <path d="M512,316.9375 C512,294.917969 497.851562,276.152344 478.175781,269.21875 L478.175781,244.195312 C481.339844,243.027344 484.386719,241.488281 487.25,239.566406 C498.636719,231.914062 505.167969,219.835938 505.167969,206.417969 C505.167969,198.027344 502.574219,190.085938 497.753906,183.40625 C500.191406,177.628906 500.925781,171.214844 499.742188,164.894531 C491.179688,119.097656 461.773438,77.175781 416.941406,46.84375 C372.289062,16.636719 315.132812,0 256,0 C196.867188,0 139.710938,16.636719 95.058594,46.84375 C50.226562,77.171875 20.820312,119.097656 12.257812,164.894531 C10.773438,172.820312 12.300781,180.890625 16.433594,187.667969 C13.320312,193.378906 11.699219,199.738281 11.699219,206.417969 C11.699219,219.835938 18.230469,231.921875 29.621094,239.570312 C30.980469,240.484375 32.390625,241.300781 33.824219,242.046875 L33.824219,269.21875 C14.148438,276.152344 0,294.917969 0,316.9375 L0,318.96875 C0,333.554688 6.214844,346.710938 16.125,355.953125 C13.234375,361.515625 11.699219,367.703125 11.699219,374.074219 C11.699219,384.085938 15.339844,393.347656 21.914062,400.585938 L21.914062,436.671875 C21.914062,475.222656 53.277344,506.589844 91.832031,506.589844 L420.167969,506.589844 C458.722656,506.589844 490.085938,475.222656 490.085938,436.671875 L490.085938,405.121094 C499.707031,397.453125 505.167969,386.324219 505.167969,374.070312 C505.167969,366.386719 503.003906,359.113281 498.960938,352.824219 C507.058594,343.855469 512,331.980469 512,318.96875 L512,316.9375 Z M492,316.9375 L492,318.96875 C492,329.292969 486.851562,338.433594 478.992188,343.976562 C473.871094,347.585938 467.679688,349.554688 461.414062,349.554688 L306.347656,349.554688 L370.117188,286.351562 L461.410156,286.351562 C478.277344,286.351562 492,300.074219 492,316.9375 Z M151.566406,286.351562 L153.152344,287.941406 L163.410156,298.195312 L141.9375,319.671875 L108.617188,286.351562 L151.566406,286.351562 Z M245.984375,352.484375 L184.632812,291.136719 C184.632812,291.132812 184.628906,291.128906 184.625,291.125 L179.851562,286.351562 L341.664062,286.351562 L274.832031,352.445312 C274.828125,352.449219 274.824219,352.453125 274.820312,352.460938 C274.8125,352.46875 274.800781,352.476562 274.792969,352.484375 L260.386719,366.890625 L245.984375,352.484375 Z M31.914062,168.566406 C39.488281,128.066406 65.894531,90.71875 106.265625,63.40625 C147.644531,35.414062 200.820312,20 256,20 C311.179688,20 364.355469,35.414062 405.734375,63.40625 C446.105469,90.71875 472.507812,128.066406 480.085938,168.566406 C481.488281,176.078125 475.488281,183.253906 467.863281,183.253906 L44.136719,183.253906 C36.5,183.253906 30.511719,176.078125 31.914062,168.566406 Z M32.4375,201.078125 C36.152344,202.515625 40.15625,203.253906 44.136719,203.253906 L467.863281,203.253906 C473.382812,203.253906 478.933594,201.824219 483.746094,199.117188 C484.6875,201.429688 485.167969,203.917969 485.167969,206.414062 C485.167969,213.058594 481.863281,219.089844 476.097656,222.960938 C470.203125,226.921875 462.695312,227.871094 455.953125,225.738281 C452.621094,224.683594 449.476562,223.324219 446.039062,222.589844 C442.320312,221.792969 438.515625,221.441406 434.714844,221.441406 C416.851562,221.441406 407.265625,228.207031 399.566406,233.640625 C392.808594,238.414062 387.472656,242.183594 375.957031,242.183594 C364.441406,242.183594 359.105469,238.414062 352.347656,233.644531 C344.648438,228.203125 335.066406,221.441406 317.199219,221.441406 C299.335938,221.441406 289.753906,228.207031 282.054688,233.644531 C275.296875,238.414062 269.960938,242.183594 258.445312,242.183594 C246.929688,242.183594 241.589844,238.414062 234.832031,233.640625 C227.132812,228.203125 217.550781,221.441406 199.6875,221.441406 C181.824219,221.441406 172.238281,228.207031 164.539062,233.640625 C157.78125,238.414062 152.441406,242.183594 140.929688,242.183594 C129.410156,242.183594 124.074219,238.414062 117.3125,233.640625 C109.613281,228.203125 100.03125,221.441406 82.164062,221.441406 C75.097656,221.441406 68.726562,222.640625 62.683594,225.105469 C55.546875,228.019531 47.195312,227.28125 40.773438,222.964844 C35.007812,219.09375 31.7030799,213.0625 31.7030799,206.417969 C31.7030799,204.578125 31.949219,202.789062 32.4375,201.078125 Z M55.8125,246.816406 C61.058594,246.5625 65.980469,245.238281 70.863281,243.378906 C75.734375,241.519531 81.046875,241.152344 86.207031,241.613281 C95.035156,242.398438 99.863281,245.808594 105.777344,249.980469 C113.476562,255.417969 123.058594,262.183594 140.925781,262.183594 C158.789062,262.183594 168.371094,255.417969 176.070312,249.980469 C182.828125,245.210938 188.167969,241.441406 199.683594,241.441406 C211.199219,241.441406 216.535156,245.210938 223.292969,249.980469 C230.992188,255.417969 240.578125,262.183594 258.441406,262.183594 C276.304688,262.183594 285.886719,255.417969 293.585938,249.980469 C300.34375,245.210938 305.683594,241.441406 317.195312,241.441406 C328.710938,241.441406 334.050781,245.210938 340.808594,249.980469 C348.507812,255.417969 358.089844,262.183594 375.953125,262.183594 C393.816406,262.183594 403.398438,255.417969 411.097656,249.980469 C417.859375,245.210938 423.195312,241.441406 434.710938,241.441406 C438.796875,241.441406 442.808594,242.121094 446.617188,243.617188 C450.332031,245.078125 454.199219,246.128906 458.171875,246.59375 L458.171875,266.355469 L366.003906,266.355469 C366,266.355469 366,266.355469 365.996094,266.355469 L365.992188,266.355469 L155.738281,266.355469 C155.730469,266.355469 155.71875,266.355469 155.710938,266.355469 C155.699219,266.355469 155.6875,266.355469 155.679688,266.355469 L53.824219,266.355469 L53.824219,246.871094 C54.488281,246.867188 55.148438,246.847656 55.8125,246.816406 L55.8125,246.816406 Z M20,316.9375 C20,300.074219 33.722656,286.351562 50.585938,286.351562 L80.335938,286.351562 L134.867188,340.886719 C136.742188,342.761719 139.285156,343.8125 141.9375,343.8125 C144.589844,343.8125 147.132812,342.761719 149.007812,340.886719 L177.554688,312.339844 L214.769531,349.554688 L50.585938,349.554688 C45.300781,349.554688 40.046875,348.15625 35.460938,345.535156 C26.234375,340.265625 20,330.335938 20,318.96875 L20,316.9375 Z M33.351562,366.527344 C38.855469,368.523438 44.730469,369.554688 50.585938,369.554688 L234.769531,369.554688 L253.316406,388.101562 C257.152344,391.941406 263.578125,391.949219 267.425781,388.132812 L286.171875,369.554688 L461.410156,369.554688 C467.050781,369.554688 472.683594,368.597656 478.011719,366.753906 C479.128906,366.367188 480.269531,365.976562 481.320312,365.4375 C481.660156,365.261719 482.152344,364.871094 482.554688,364.898438 C483.109375,364.9375 483.253906,365.644531 483.453125,366.089844 C484.535156,368.476562 485.113281,371.089844 485.163204,373.710938 C485.328125,383.144531 478.535156,391.039062 469.664062,393.609375 C464.582031,395.085938 459.078125,394.757812 454.179688,392.757812 C448.148438,390.292969 441.777344,389.09375 434.710938,389.09375 C416.847656,389.09375 407.265625,395.859375 399.566406,401.296875 C392.804688,406.070312 387.46875,409.839844 375.953125,409.839844 C364.441406,409.839844 359.101562,406.070312 352.34375,401.296875 C344.644531,395.859375 335.0625,389.09375 317.199219,389.09375 C299.335938,389.09375 289.753906,395.859375 282.050781,401.296875 C275.292969,406.070312 269.957031,409.839844 258.441406,409.839844 C246.925781,409.839844 241.589844,406.070312 234.828125,401.296875 C227.128906,395.859375 217.546875,389.09375 199.683594,389.09375 C181.820312,389.09375 172.238281,395.859375 164.535156,401.296875 C157.777344,406.070312 152.441406,409.839844 140.925781,409.839844 C129.40625,409.839844 124.070312,406.066406 117.3125,401.296875 C109.609375,395.859375 100.027344,389.09375 82.160156,389.09375 C75.09375,389.09375 68.722656,390.292969 62.683594,392.761719 C56.15625,395.425781 48.546875,395.074219 42.386719,391.605469 C36.9375,388.539062 32.878906,383.28125 31.925781,377.035156 C31.640625,375.1875 31.625,373.296875 31.871094,371.441406 C31.941406,370.902344 32.859375,366.347656 33.351562,366.527344 L33.351562,366.527344 Z M470.085938,436.671875 C470.085938,464.195312 447.691406,486.589844 420.167969,486.589844 L91.832031,486.589844 C64.308594,486.589844 41.914062,464.195312 41.914062,436.671875 L41.914062,412.953125 C50.125,415.28125 58.988281,415.117188 67.433594,412.308594 C67.605469,412.25 67.777344,412.191406 67.945312,412.136719 C68.714844,411.867188 69.484375,411.589844 70.242188,411.277344 C73.835938,409.808594 77.734375,409.097656 82.160156,409.097656 C93.679688,409.097656 99.015625,412.863281 105.773438,417.636719 C113.476562,423.074219 123.058594,429.839844 140.925781,429.839844 C158.789062,429.839844 168.371094,423.074219 176.070312,417.636719 C182.828125,412.863281 188.167969,409.097656 199.679688,409.097656 C211.195312,409.097656 216.535156,412.863281 223.292969,417.636719 C230.992188,423.074219 240.574219,429.839844 258.441406,429.839844 C276.304688,429.839844 285.886719,423.074219 293.585938,417.636719 C300.34375,412.863281 305.683594,409.097656 317.195312,409.097656 C328.710938,409.097656 334.050781,412.863281 340.804688,417.636719 C348.503906,423.074219 358.089844,429.839844 375.953125,429.839844 C393.816406,429.839844 403.398438,423.074219 411.097656,417.636719 C417.855469,412.863281 423.195312,409.097656 434.710938,409.097656 C437.691406,409.097656 440.679688,409.429688 443.558594,410.230469 C446.296875,410.992188 448.882812,412.195312 451.621094,412.96875 C457.566406,414.644531 463.984375,415 470.085938,414.007812 L470.085938,436.671875 L470.085938,436.671875 Z" id="Shape"></path>
            <path d="M225.910156,101.734375 C227.492188,105.53125 231.523438,108.109375 235.636719,107.898438 C239.695312,107.691406 243.417969,104.832031 244.65625,100.964844 C245.914062,97.042969 244.503906,92.476562 241.226562,89.972656 C237.839844,87.382812 232.84375,87.285156 229.363281,89.757812 C225.671875,92.375 224.164062,97.550781 225.910156,101.734375 Z" id="Path"></path>
            <path d="M271.019531,145.8125 C272.601562,149.613281 276.628906,152.167969 280.738281,151.972656 C284.800781,151.777344 288.515625,148.902344 289.761719,145.039062 C291.023438,141.121094 289.609375,136.542969 286.328125,134.046875 C282.933594,131.464844 277.945312,131.378906 274.460938,133.835938 C270.757812,136.453125 269.304688,141.628906 271.019531,145.8125 L271.019531,145.8125 Z" id="Path"></path>
            <path d="M245.488281,56.023438 C249.046875,58.394531 254.050781,58.160156 257.359375,55.449219 C260.59375,52.800781 261.886719,48.109375 260.394531,44.195312 C258.941406,40.394531 255.089844,37.6875 251.007812,37.706926 C246.96875,37.730469 243.128906,40.382812 241.699219,44.164062 C240.101562,48.398438 241.734375,53.5 245.488281,56.023438 L245.488281,56.023438 Z" id="Path"></path>
        </g>
    </g>
</svg>