<?xml version="1.0" encoding="iso-8859-1"?>
<!-- Generator: Adobe Illustrator 19.0.0, SVG Export Plug-In . SVG Version: 6.00 Build 0)  -->
<svg version="1.1" id="Capa_1" xmlns="http://www.w3.org/2000/svg" xmlns:xlink="http://www.w3.org/1999/xlink" x="0px" y="0px"
	 viewBox="0 0 464 464" style="enable-background:new 0 0 464 464;" xml:space="preserve">
<g>
	<path style="fill:#A65A14;" d="M16,160h432c8.837,0,16-7.163,16-16c0-53.019-42.981-96-96-96H96C42.981,48,0,90.981,0,144
		C0,152.837,7.163,160,16,160z"/>
	<path style="fill:#A65A14;" d="M64,416h336c35.346,0,64-28.654,64-64c0-8.837-7.163-16-16-16H16c-8.837,0-16,7.163-16,16
		C0,387.346,28.654,416,64,416z"/>
</g>
<path style="fill:#763A02;" d="M28,200h408c15.464,0,28,12.536,28,28l0,0c0,15.464-12.536,28-28,28H28c-15.464,0-28-12.536-28-28
	l0,0C0,212.536,12.536,200,28,200z"/>
<path style="fill:#33BC00;" d="M452,160H12c-6.627,0-12,5.373-12,12c0,11.046,8.954,20,20,20h3.712
	c5.305-0.001,10.393,2.105,14.144,5.856l20,20c7.809,7.812,20.473,7.813,28.284,0.004c0.001-0.001,0.002-0.002,0.004-0.004
	l11.712-11.712c7.809-7.812,20.473-7.813,28.284-0.004c0.001,0.001,0.002,0.002,0.004,0.004l11.712,11.712
	c7.809,7.812,20.473,7.813,28.284,0.004c0.001-0.001,0.002-0.002,0.004-0.004l11.712-11.712c7.809-7.812,20.473-7.813,28.284-0.004
	c0.001,0.001,0.002,0.002,0.004,0.004l11.712,11.712c7.809,7.812,20.473,7.813,28.284,0.004c0.001-0.001,0.003-0.002,0.004-0.004
	l11.712-11.712c7.809-7.812,20.473-7.813,28.284-0.004c0.001,0.001,0.002,0.002,0.004,0.004l11.712,11.712
	c7.809,7.812,20.473,7.813,28.284,0.004c0.001-0.001,0.002-0.002,0.004-0.004l11.712-11.712c7.809-7.812,20.473-7.813,28.284-0.004
	c0.001,0.001,0.002,0.002,0.004,0.004l11.712,11.712c7.809,7.812,20.473,7.813,28.284,0.004c0.001-0.001,0.002-0.002,0.004-0.004
	l20-20c3.751-3.751,8.839-5.857,14.144-5.856H444c11.046,0,20-8.954,20-20C464,165.373,458.627,160,452,160L452,160z"/>
<path style="fill:#DE0418;" d="M24,288h416c13.255,0,24,10.745,24,24l0,0c0,13.255-10.745,24-24,24H24c-13.255,0-24-10.745-24-24
	l0,0C0,298.745,10.745,288,24,288z"/>
<path style="fill:#FDB62F;" d="M296,368c8.837,0,16-7.163,16-16v-48c0-8.837,7.163-16,16-16s16,7.163,16,16s7.163,16,16,16
	s16-7.163,16-16s7.163-16,16-16h48c8.837,0,16-7.163,16-16s-7.163-16-16-16H16c-8.837,0-16,7.163-16,16s7.163,16,16,16h25.376
	c4.243,0.001,8.312,1.687,11.312,4.688l79.496,79.496c6.248,6.249,16.378,6.25,22.627,0.002c0.165-0.165,0.327-0.334,0.485-0.506
	l71.952-78.496c3.031-3.304,7.309-5.184,11.792-5.184H264c8.837,0,16,7.163,16,16v48C280,360.837,287.163,368,296,368z"/>
<g>
	<path style="fill:#7C440F;" d="M96,72h16v16H96V72z"/>
	<path style="fill:#7C440F;" d="M128,104h16v16h-16V104z"/>
	<path style="fill:#7C440F;" d="M160,72h16v16h-16V72z"/>
	<path style="fill:#7C440F;" d="M192,104h16v16h-16V104z"/>
	<path style="fill:#7C440F;" d="M224,72h16v16h-16V72z"/>
	<path style="fill:#7C440F;" d="M256,104h16v16h-16V104z"/>
	<path style="fill:#7C440F;" d="M288,72h16v16h-16V72z"/>
	<path style="fill:#7C440F;" d="M320,104h16v16h-16V104z"/>
	<path style="fill:#7C440F;" d="M352,72h16v16h-16V72z"/>
</g>
<g>
</g>
<g>
</g>
<g>
</g>
<g>
</g>
<g>
</g>
<g>
</g>
<g>
</g>
<g>
</g>
<g>
</g>
<g>
</g>
<g>
</g>
<g>
</g>
<g>
</g>
<g>
</g>
<g>
</g>
</svg>
